<?xml version="1.0" encoding="UTF-8"?>
<svg xmlns="http://www.w3.org/2000/svg" xmlns:xlink="http://www.w3.org/1999/xlink" width="20pt" height="20pt" viewBox="0 0 20 20" version="1.1">
<g id="surface3548066">
<path style=" stroke:none;fill-rule:nonzero;fill:rgb(10.196078%,73.72549%,61.176471%);fill-opacity:1;" d="M 10 4.800781 C 7.402344 4.800781 5.046875 5.34375 3.308594 6.25 C 1.570312 7.160156 0.398438 8.46875 0.398438 10 C 0.398438 11.53125 1.570312 12.839844 3.308594 13.75 C 5.046875 14.65625 7.402344 15.199219 10 15.199219 C 12.597656 15.199219 14.953125 14.65625 16.691406 13.75 C 18.429688 12.839844 19.601562 11.53125 19.601562 10 C 19.601562 8.46875 18.429688 7.160156 16.691406 6.25 C 14.953125 5.34375 12.597656 4.800781 10 4.800781 Z M 10 5.601562 C 12.484375 5.601562 14.730469 6.128906 16.320312 6.960938 C 17.910156 7.789062 18.800781 8.882812 18.800781 10 C 18.800781 11.117188 17.910156 12.210938 16.320312 13.039062 C 14.730469 13.871094 12.484375 14.398438 10 14.398438 C 7.515625 14.398438 5.269531 13.871094 3.679688 13.039062 C 2.089844 12.210938 1.199219 11.117188 1.199219 10 C 1.199219 8.882812 2.089844 7.789062 3.679688 6.960938 C 5.269531 6.128906 7.515625 5.601562 10 5.601562 Z M 9.003906 6.398438 L 8 11.199219 L 9.050781 11.199219 L 9.554688 8.800781 L 10.394531 8.800781 C 10.664062 8.800781 10.839844 8.84375 10.921875 8.933594 C 11.003906 9.023438 11.023438 9.191406 10.976562 9.433594 L 10.59375 11.199219 L 11.65625 11.199219 L 12.074219 9.289062 C 12.164062 8.832031 12.09375 8.496094 11.875 8.289062 C 11.648438 8.082031 11.25 8 10.65625 8 L 9.71875 8 L 10.050781 6.398438 Z M 4.398438 8 L 3.589844 12.398438 L 4.648438 12.398438 L 4.859375 11.199219 L 5.515625 11.199219 C 6.894531 11.199219 7.644531 10.882812 7.925781 9.699219 C 8.164062 8.679688 7.550781 8 6.53125 8 Z M 12.800781 8 L 11.988281 12.398438 L 13.046875 12.398438 L 13.257812 11.199219 L 13.917969 11.199219 C 15.296875 11.199219 16.046875 10.882812 16.324219 9.699219 C 16.566406 8.679688 15.949219 8 14.933594 8 Z M 5.308594 8.800781 L 6.132812 8.800781 C 6.816406 8.800781 6.960938 9.109375 6.925781 9.449219 C 6.832031 10.332031 6.28125 10.398438 5.691406 10.398438 L 5.007812 10.398438 Z M 13.710938 8.800781 L 14.53125 8.800781 C 15.21875 8.800781 15.359375 9.109375 15.324219 9.449219 C 15.234375 10.332031 14.683594 10.398438 14.09375 10.398438 L 13.40625 10.398438 Z M 13.710938 8.800781 "/>
</g>
</svg>
