<?xml version="1.0" encoding="UTF-8"?>
<svg xmlns="http://www.w3.org/2000/svg" xmlns:xlink="http://www.w3.org/1999/xlink" width="20pt" height="20pt" viewBox="0 0 20 20" version="1.1">
<g id="surface3534840">
<path style=" stroke:none;fill-rule:nonzero;fill:rgb(94.509804%,76.862745%,5.882353%);fill-opacity:1;" d="M 2.1875 0.800781 C 2.074219 0.800781 1.964844 0.847656 1.890625 0.929688 C 1.816406 1.011719 1.777344 1.125 1.789062 1.234375 L 3.195312 17.007812 C 3.210938 17.171875 3.324219 17.308594 3.484375 17.355469 L 9.886719 19.183594 C 9.960938 19.203125 10.035156 19.203125 10.105469 19.183594 L 16.515625 17.355469 C 16.675781 17.308594 16.789062 17.171875 16.804688 17.007812 L 18.210938 1.234375 C 18.222656 1.125 18.183594 1.011719 18.109375 0.929688 C 18.035156 0.847656 17.925781 0.800781 17.8125 0.800781 Z M 2.625 1.601562 L 17.375 1.601562 L 16.035156 16.660156 L 9.996094 18.382812 L 3.96875 16.660156 Z M 7.601562 4 C 7.378906 4 7.199219 4.179688 7.199219 4.398438 L 7.199219 11.851562 L 4.90625 11.214844 C 4.785156 11.183594 4.65625 11.207031 4.558594 11.285156 C 4.457031 11.359375 4.398438 11.476562 4.398438 11.601562 L 4.398438 13.578125 C 4.398438 13.757812 4.519531 13.917969 4.691406 13.964844 L 9.09375 15.183594 C 9.214844 15.21875 9.34375 15.195312 9.441406 15.117188 C 9.542969 15.042969 9.601562 14.925781 9.601562 14.800781 L 9.601562 4.398438 C 9.601562 4.179688 9.421875 4 9.199219 4 Z M 10.800781 4 C 10.578125 4 10.398438 4.179688 10.398438 4.398438 L 10.398438 11.199219 C 10.398438 11.316406 10.453125 11.429688 10.542969 11.507812 C 10.632812 11.582031 10.75 11.613281 10.867188 11.59375 L 13.167969 11.199219 L 13.121094 11.90625 L 10.695312 12.574219 C 10.519531 12.621094 10.398438 12.78125 10.398438 12.960938 L 10.398438 14.800781 C 10.398438 14.925781 10.457031 15.042969 10.558594 15.117188 C 10.65625 15.195312 10.785156 15.21875 10.90625 15.1875 L 14.90625 14.085938 C 15.066406 14.042969 15.183594 13.902344 15.199219 13.734375 L 15.621094 8.835938 C 15.628906 8.714844 15.585938 8.59375 15.496094 8.507812 C 15.410156 8.425781 15.285156 8.386719 15.164062 8.402344 L 12.800781 8.738281 L 12.800781 6.398438 L 15.460938 6.398438 C 15.667969 6.398438 15.84375 6.242188 15.859375 6.035156 L 16 4.433594 C 16.007812 4.324219 15.96875 4.210938 15.894531 4.128906 C 15.820312 4.046875 15.710938 4 15.601562 4 Z M 8 4.800781 L 8.800781 4.800781 L 8.800781 14.273438 L 5.199219 13.277344 L 5.199219 12.128906 L 7.492188 12.761719 C 7.613281 12.796875 7.742188 12.773438 7.84375 12.695312 C 7.941406 12.621094 8 12.503906 8 12.378906 Z M 11.199219 4.800781 L 15.164062 4.800781 L 15.09375 5.601562 L 12.398438 5.601562 C 12.179688 5.601562 12 5.777344 12 6 L 12 9.199219 C 12 9.316406 12.050781 9.425781 12.136719 9.503906 C 12.226562 9.578125 12.339844 9.613281 12.457031 9.597656 L 14.78125 9.265625 L 14.425781 13.386719 L 11.199219 14.273438 L 11.199219 13.265625 L 13.605469 12.601562 C 13.769531 12.558594 13.886719 12.414062 13.898438 12.246094 L 14 10.746094 C 14.007812 10.621094 13.960938 10.503906 13.867188 10.421875 C 13.777344 10.339844 13.652344 10.300781 13.53125 10.324219 L 11.199219 10.726562 Z M 11.199219 4.800781 "/>
</g>
</svg>
