<?xml version="1.0" encoding="UTF-8"?>
<svg xmlns="http://www.w3.org/2000/svg" xmlns:xlink="http://www.w3.org/1999/xlink" width="16pt" height="16pt" viewBox="0 0 16 16" version="1.1">
<g id="surface3556939">
<path style=" stroke:none;fill-rule:nonzero;fill:rgb(15.686275%,54.509804%,90.196078%);fill-opacity:1;" d="M 7.988281 0.335938 C 7.921875 0.339844 7.855469 0.363281 7.804688 0.40625 L 0.441406 6.148438 C 0.304688 6.257812 0.277344 6.457031 0.386719 6.597656 C 0.496094 6.738281 0.699219 6.761719 0.835938 6.652344 L 1.28125 6.308594 L 1.28125 14.71875 C 1.28125 14.898438 1.421875 15.039062 1.601562 15.039062 L 6.027344 15.039062 C 6.0625 15.046875 6.097656 15.046875 6.128906 15.039062 L 9.867188 15.039062 C 9.902344 15.046875 9.9375 15.046875 9.96875 15.039062 L 14.398438 15.039062 C 14.578125 15.039062 14.71875 14.898438 14.71875 14.71875 L 14.71875 6.308594 L 15.164062 6.652344 C 15.253906 6.722656 15.375 6.738281 15.480469 6.695312 C 15.585938 6.652344 15.660156 6.558594 15.675781 6.445312 C 15.691406 6.332031 15.648438 6.21875 15.558594 6.148438 L 13.121094 4.246094 L 13.121094 1.921875 L 11.199219 1.921875 L 11.199219 2.746094 L 8.195312 0.40625 C 8.136719 0.359375 8.0625 0.335938 7.988281 0.335938 Z M 8 1.0625 L 14.078125 5.808594 L 14.078125 14.398438 L 10.238281 14.398438 L 10.238281 8.320312 L 5.761719 8.320312 L 5.761719 14.398438 L 1.921875 14.398438 L 1.921875 5.808594 Z M 11.839844 2.558594 L 12.480469 2.558594 L 12.480469 3.746094 L 11.839844 3.246094 Z M 6.398438 8.960938 L 9.601562 8.960938 L 9.601562 14.398438 L 6.398438 14.398438 Z M 6.398438 8.960938 "/>
</g>
</svg>
